HIERARCHY
ROOT RootJoint
{
    OFFSET   0.000000   0.000000   0.000000
    CHANNELS 6 Xposition Yposition Zposition Xrotation Yrotation Zrotation
    JOINT pelvis_lowerback
    {
        OFFSET   0.000000   0.093605   0.000000
        CHANNELS 3 Xrotation Yrotation Zrotation
        JOINT lowerback_torso
        {
            OFFSET   0.000000   0.100000   0.000000
            CHANNELS 3 Xrotation Yrotation Zrotation
            JOINT torso_head
            {
                OFFSET   0.000000   0.282350   0.000000
                CHANNELS 3 Xrotation Yrotation Zrotation
                End Site
                {
                    OFFSET   0.000000   0.192650   0.000000
                }
            }
            JOINT rTorso_Clavicle
            {
                OFFSET  -0.001000   0.157500   0.000000
                CHANNELS 3 Xrotation Yrotation Zrotation
                JOINT rShoulder
                {
                    OFFSET  -0.117647   0.000000   0.000000
                    CHANNELS 3 Xrotation Yrotation Zrotation
                    JOINT rElbow
                    {
                        OFFSET  -0.245000   0.000000   0.000000
                        CHANNELS 3 Xrotation Yrotation Zrotation
                        JOINT rWrist
                        {
                            OFFSET  -0.240000   0.000000   0.000000
                            CHANNELS 3 Xrotation Yrotation Zrotation
                            End Site
                            {
                                OFFSET  -0.116353  -0.002500   0.000000
                            }
                        }
                    }
                }
            }
            JOINT lTorso_Clavicle
            {
                OFFSET   0.001000   0.157500   0.000000
                CHANNELS 3 Xrotation Yrotation Zrotation
                JOINT lShoulder
                {
                    OFFSET   0.117647   0.000000   0.000000
                    CHANNELS 3 Xrotation Yrotation Zrotation
                    JOINT lElbow
                    {
                        OFFSET   0.245000   0.000000   0.000000
                        CHANNELS 3 Xrotation Yrotation Zrotation
                        JOINT lWrist
                        {
                            OFFSET   0.240000   0.000000   0.000000
                            CHANNELS 3 Xrotation Yrotation Zrotation
                            End Site
                            {
                                OFFSET   0.116353  -0.002500   0.000000
                            }
                        }
                    }
                }
            }
        }
    }
    JOINT rHip
    {
        OFFSET  -0.100000  -0.051395   0.000000
        CHANNELS 3 Xrotation Yrotation Zrotation
        JOINT rKnee
        {
            OFFSET   0.000000  -0.410000   0.000000
            CHANNELS 3 Xrotation Yrotation Zrotation
            JOINT rAnkle
            {
                OFFSET   0.000000  -0.390000   0.000000
                CHANNELS 3 Xrotation Yrotation Zrotation
                JOINT rToeJoint
                {
                    OFFSET   0.000000  -0.050000   0.130000
                    CHANNELS 3 Xrotation Yrotation Zrotation
                    End Site
                    {
                        OFFSET  -0.010000   0.002000   0.060000
                    }
                }
            }
        }
    }
    JOINT lHip
    {
        OFFSET   0.100000  -0.051395   0.000000
        CHANNELS 3 Xrotation Yrotation Zrotation
        JOINT lKnee
        {
            OFFSET   0.000000  -0.410000   0.000000
            CHANNELS 3 Xrotation Yrotation Zrotation
            JOINT lAnkle
            {
                OFFSET   0.000000  -0.390000   0.000000
                CHANNELS 3 Xrotation Yrotation Zrotation
                JOINT lToeJoint
                {
                    OFFSET   0.000000  -0.050000   0.130000
                    CHANNELS 3 Xrotation Yrotation Zrotation
                    End Site
                    {
                        OFFSET   0.010000   0.002000   0.060000
                    }
                }
            }
        }
    }
}
MOTION
Frames: 10
Frame Time:   0.008333
 -2.382452   0.916647   4.018565  -5.866137   3.894828  -0.951072   7.382175  -0.335946  -1.339353  10.101044  -2.322407   1.464316  -0.627042  -1.897237   0.993221   3.639013   4.152855  10.495596   5.560109   9.162020  41.943524   0.000001  20.352845  -0.000026  10.679755   3.460100  -1.615460   4.986550  -3.237977 -10.639506   7.116618 -10.061795 -44.852121  -0.000010 -27.549741  -0.000014  10.052273  -3.796888   1.119805   7.822461  -4.247890  -2.159494   3.369989   0.000046  -0.000008  -4.828274  -5.675837   1.000232  -0.220745   0.000001  -0.000000   8.955982   0.517646   5.749800   6.286824   0.000104  -0.000025  -9.459591   1.311579  -0.724744   0.108227  -0.000014   0.000000
 -2.381869   0.916625   4.018652  -5.851763   3.841759  -0.949223   7.396172  -0.325933  -1.351699  10.108490  -2.307285   1.458147  -0.597394  -1.878087   0.996518   3.634834   4.132677  10.491323   5.529688   9.191500  41.943081   0.000003  20.322183  -0.000027  10.673625   3.443895  -1.644555   4.973327  -3.206048 -10.607475   7.087216 -10.024539 -44.874237  -0.000002 -27.525781  -0.000003  10.084873  -3.805218   1.146508   7.775132  -4.233501  -2.210717   3.428373   0.000055  -0.000028  -4.846426  -5.666758   1.044619  -0.227560   0.000001   0.000002   8.920993   0.543171   5.698173   6.363586   0.000108  -0.000039  -9.514889   1.333443  -0.702784   0.108160  -0.000011   0.000000
 -2.381278   0.916604   4.018741  -5.841658   3.775172  -0.951420   7.412245  -0.313854  -1.363709  10.119975  -2.288558   1.451922  -0.567275  -1.860242   0.999803   3.627144   4.117249  10.488234   5.498288   9.222061  41.942231   0.000004  20.294873  -0.000028  10.668071   3.430811  -1.676860   4.963793  -3.173720 -10.578964   7.061993  -9.987632 -44.895757   0.000001 -27.501581   0.000003  10.080320  -3.803560   1.170594   7.728773  -4.231543  -2.255401   3.489700   0.000061  -0.000058  -4.861763  -5.669350   1.087944  -0.236413   0.000001   0.000007   8.892656   0.575684   5.648344   6.440709   0.000112  -0.000056  -9.571510   1.362579  -0.682972   0.108105  -0.000009   0.000000
 -2.380675   0.916584   4.018833  -5.832762   3.704808  -0.955351   7.428516  -0.301977  -1.375540  10.132627  -2.269467   1.445659  -0.538597  -1.843759   1.002884   3.618761   4.104003  10.485965   5.467978   9.251641  41.941670   0.000005  20.270000  -0.000028  10.662785   3.421605  -1.709536   4.956646  -3.142299 -10.553386   7.039824  -9.952133 -44.916662   0.000003 -27.478209   0.000006  10.076701  -3.797039   1.190782   7.684682  -4.232632  -2.298048   3.547994   0.000064  -0.000084  -4.874322  -5.673840   1.126981  -0.246274   0.000001   0.000012   8.867489   0.610120   5.599076   6.515578   0.000114  -0.000070  -9.626268   1.393914  -0.665019   0.104420  -0.000008   0.000000
 -2.380059   0.916565   4.018931  -5.824390   3.634493  -0.960862   7.444591  -0.290810  -1.386807  10.145603  -2.251120   1.439636  -0.511635  -1.828464   1.005781   3.610680   4.091950  10.484390   5.439439   9.279563  41.941488   0.000005  20.246981  -0.000028  10.657724   3.414372  -1.741060   4.950908  -3.112391 -10.530329   7.019866  -9.918518 -44.936819   0.000003 -27.455999   0.000007  10.073828  -3.788436   1.207681   7.642783  -4.235285  -2.339093   3.603173   0.000065  -0.000104  -4.883214  -5.679444   1.162966  -0.183147   0.000002  -0.000034   8.844616   0.644620   5.550828   6.587280   0.000115  -0.000080  -9.677746   1.425441  -0.648598   0.093601  -0.000009   0.000000
 -2.379432   0.916549   4.019034  -5.816173   3.566461  -0.966730   7.460150  -0.280739  -1.398296  10.158472  -2.234126   1.433649  -0.486365  -1.814244   1.008480   3.603345   4.080574  10.483436   5.412907   9.305595  41.941785   0.000006  20.225509  -0.000028  10.652860   3.407949  -1.770714   4.945999  -3.084226 -10.509203   7.001607  -9.886933 -44.955992   0.000002 -27.435088   0.000006  10.071576  -3.779173   1.222208   7.603334  -4.237677  -2.380126   3.654894   0.000066  -0.000117  -4.890223  -5.684401   1.195251  -0.212730  -0.000000  -0.000008   8.823385   0.677989   5.502721   6.655780   0.000115  -0.000087  -9.725991   1.455944  -0.633709   0.076848  -0.000011   0.000000
 -2.378794   0.916534   4.019144  -5.808110   3.501314  -0.973377   7.475143  -0.271658  -1.409581  10.171109  -2.218522   1.427821  -0.462717  -1.800997   1.010971   3.596823   4.069736  10.483016   5.388356   9.329743  41.942448   0.000005  20.205390  -0.000027  10.648181   3.401680  -1.798389   4.941594  -3.057873 -10.489843   6.984723  -9.857387 -44.974136   0.000001 -27.415486   0.000005  10.069843  -3.769855   1.235137   7.566115  -4.240172  -2.420553   3.703841   0.000066  -0.000124  -4.894540  -5.689297   1.224804  -0.242323  -0.000003   0.000013   8.803860   0.710010   5.455398   6.720932   0.000115  -0.000091  -9.771308   1.485147  -0.620206   0.055622  -0.000015   0.000000
 -2.378128   0.916533   4.019209  -5.787249   3.423726  -0.990684   7.475606  -0.266089  -1.413386  10.188347  -2.198509   1.422896  -0.429531  -1.780150   1.018380   3.584344   4.060436  10.472062   5.353109   9.373360  41.944775   0.000009  20.165385  -0.000033  10.646332   3.390362  -1.823743   4.926883  -3.019719 -10.469811   6.965154  -9.835783 -45.000889  -0.000004 -27.338363   0.000005  10.068609  -3.793432   1.243246   7.488608  -4.236672  -2.456815   3.794290   0.000078  -0.000162  -4.891826  -5.690562   1.273501  -0.300031   0.000000   0.000050   8.759316   0.736886   5.412390   6.810531   0.000124  -0.000115  -9.833272   1.532005  -0.587660   0.055605  -0.000012   0.000000
 -2.377437   0.916538   4.019271  -5.770211   3.348298  -1.010897   7.478823  -0.262109  -1.415948  10.207549  -2.178473   1.419738  -0.397126  -1.760793   1.026404   3.570416   4.053191  10.459124   5.318561   9.415386  41.945040   0.000014  20.128596  -0.000036  10.644476   3.378044  -1.851913   4.915430  -2.982380 -10.450089   6.949049  -9.813415 -45.025196  -0.000009 -27.263818   0.000001  10.067326  -3.801099   1.246891   7.413468  -4.232650  -2.491346   3.887145   0.000090  -0.000193  -4.883189  -5.690398   1.318595  -0.366240  -0.000000   0.000083   8.718826   0.763176   5.371529   6.898829   0.000132  -0.000134  -9.893795   1.577820  -0.557010   0.055591  -0.000010   0.000000
 -2.376721   0.916547   4.019334  -5.755426   3.277730  -1.031693   7.482927  -0.258406  -1.418660  10.227190  -2.159113   1.417139  -0.366424  -1.742863   1.034165   3.557086   4.046387  10.445823   5.286123   9.454591  41.944366   0.000017  20.094395  -0.000038  10.642660   3.366494  -1.881676   4.906220  -2.946135 -10.430529   6.935368  -9.791176 -45.047171  -0.000014 -27.193401  -0.000003  10.066193  -3.802057   1.248966   7.342539  -4.228969  -2.526144   3.977253   0.000101  -0.000212  -4.870235  -5.690144   1.359752  -0.436289  -0.000004   0.000110   8.681898   0.787881   5.330849   6.983158   0.000138  -0.000145  -9.951365   1.620634  -0.528814   0.055580  -0.000008   0.000000
